<svg width="375" height="400" viewBox="0 0 375 400" fill="none" xmlns="http://www.w3.org/2000/svg">
<circle cx="200" cy="200" r="148" fill="#93A0FA"/>
<path d="M292.334 246.947L293.506 252.514C293.506 254.857 292.285 257.641 289.844 260.863C283.398 269.262 273.047 278.93 258.789 289.867C244.629 300.707 234.18 306.127 227.441 306.127C220.703 306.127 215.43 304.174 211.621 300.268C207.812 296.264 205.908 291.723 205.908 286.645C205.908 280.59 212.256 267.211 224.951 246.508C243.994 215.746 268.311 179.809 297.9 138.695C291.65 145.141 275.049 162.523 248.096 190.844C188.428 253.344 153.564 288.744 143.506 297.045C141.846 298.412 139.404 299.096 136.182 299.096C133.057 299.096 129.736 297.826 126.221 295.287C122.705 292.65 120.947 289.721 120.947 286.498V285.766C121.338 281.664 130.762 261.596 149.219 225.561C167.676 189.525 183.154 160.863 195.654 139.574C177.197 159.887 158.545 182.543 139.697 207.543C103.857 255.004 77.6367 295.434 61.0352 328.832C59.5703 331.957 57.7637 333.52 55.6152 333.52C53.4668 333.52 50.3418 332.982 46.2402 331.908C37.6465 329.564 33.3496 325.463 33.3496 319.604C33.3496 316.088 40.5273 303.539 54.8828 281.957C69.2383 260.277 85.8887 236.645 104.834 211.059C123.779 185.375 143.408 160.668 163.721 136.938C191.748 104.125 209.766 87.7188 217.773 87.7188C219.043 87.7188 220.264 88.0605 221.436 88.7441C222.607 89.3301 223.34 89.623 223.633 89.623C223.926 89.623 224.219 89.4766 224.512 89.1836C225.781 87.6211 228.271 86.8398 231.982 86.8398C235.791 86.8398 239.453 87.5723 242.969 89.0371C246.582 90.502 248.389 92.1621 248.389 94.0176C248.389 95.1895 243.506 104.516 233.74 121.996C201.025 180.004 179.053 219.848 167.822 241.527C178.564 228.539 193.896 211.303 213.818 189.818C233.838 168.334 254.834 146.898 276.807 125.512C305.42 97.7773 322.51 83.9102 328.076 83.9102C330.322 83.9102 333.154 84.3984 336.572 85.375C342.627 87.1328 348.438 88.0117 354.004 88.0117C355.566 88.3047 356.885 88.9883 357.959 90.0625C359.131 91.0391 359.717 92.0645 359.717 93.1387C359.717 94.2129 359.424 95.0918 358.838 95.7754C327.1 137.963 300.342 175.17 278.564 207.396C256.787 239.623 243.359 261.4 238.281 272.729C248.535 270.58 263.818 258.324 284.131 235.961C285.01 234.789 285.645 234.008 286.035 233.617C286.426 233.227 286.768 232.836 287.061 232.445C288.721 230.492 289.99 231.713 290.869 236.107C291.26 238.646 291.504 240.453 291.602 241.527C291.797 242.504 291.943 243.578 292.041 244.75C292.236 245.824 292.334 246.557 292.334 246.947Z" fill="#171717"/>
</svg>
