<svg width="327" height="250" viewBox="0 0 327 250" fill="none" xmlns="http://www.w3.org/2000/svg">
<path d="M258.984 163.037L260.156 168.604C260.156 170.947 258.936 173.73 256.494 176.953C250.049 185.352 239.697 195.02 225.439 205.957C211.279 216.797 200.83 222.217 194.092 222.217C187.354 222.217 182.08 220.264 178.271 216.357C174.463 212.354 172.559 207.812 172.559 202.734C172.559 196.68 178.906 183.301 191.602 162.598C210.645 131.836 234.961 95.8984 264.551 54.7852C258.301 61.2305 241.699 78.6133 214.746 106.934C155.078 169.434 120.215 204.834 110.156 213.135C108.496 214.502 106.055 215.186 102.832 215.186C99.707 215.186 96.3867 213.916 92.8711 211.377C89.3555 208.74 87.5977 205.811 87.5977 202.588V201.855C87.9883 197.754 97.4121 177.686 115.869 141.65C134.326 105.615 149.805 76.9531 162.305 55.6641C143.848 75.9766 125.195 98.6328 106.348 123.633C70.5078 171.094 44.2871 211.523 27.6855 244.922C26.2207 248.047 24.4141 249.609 22.2656 249.609C20.1172 249.609 16.9922 249.072 12.8906 247.998C4.29688 245.654 0 241.553 0 235.693C0 232.178 7.17773 219.629 21.5332 198.047C35.8887 176.367 52.5391 152.734 71.4844 127.148C90.4297 101.465 110.059 76.7578 130.371 53.0273C158.398 20.2148 176.416 3.80859 184.424 3.80859C185.693 3.80859 186.914 4.15039 188.086 4.83398C189.258 5.41992 189.99 5.71289 190.283 5.71289C190.576 5.71289 190.869 5.56641 191.162 5.27344C192.432 3.71094 194.922 2.92969 198.633 2.92969C202.441 2.92969 206.104 3.66211 209.619 5.12695C213.232 6.5918 215.039 8.25195 215.039 10.1074C215.039 11.2793 210.156 20.6055 200.391 38.0859C167.676 96.0938 145.703 135.938 134.473 157.617C145.215 144.629 160.547 127.393 180.469 105.908C200.488 84.4238 221.484 62.9883 243.457 41.6016C272.07 13.8672 289.16 0 294.727 0C296.973 0 299.805 0.488281 303.223 1.46484C309.277 3.22266 315.088 4.10156 320.654 4.10156C322.217 4.39453 323.535 5.07813 324.609 6.15234C325.781 7.12891 326.367 8.1543 326.367 9.22852C326.367 10.3027 326.074 11.1816 325.488 11.8652C293.75 54.0527 266.992 91.2598 245.215 123.486C223.438 155.713 210.01 177.49 204.932 188.818C215.186 186.67 230.469 174.414 250.781 152.051C251.66 150.879 252.295 150.098 252.686 149.707C253.076 149.316 253.418 148.926 253.711 148.535C255.371 146.582 256.641 147.803 257.52 152.197C257.91 154.736 258.154 156.543 258.252 157.617C258.447 158.594 258.594 159.668 258.691 160.84C258.887 161.914 258.984 162.646 258.984 163.037Z" fill="#171717"/>
</svg>
